External Loads File
version=1
nRows=46
nColumns=13
Range=5.000000e-03-10 seconds
endheader
time 	forceRightX 	forceRightY 	forceRightZ 	pointRightX 	pointRightY 	pointRightZ 	forceLeftX 	forceLeftY 	forceLeftZ 	pointLeftX 	pointLeftY 	pointLeftZ 		
0.005000 61.174088 161.914392 -0.000000 0.108337 0.240737 -0.144912 -30.676942 101.650008 -0.000000 0.375396 0.417951 -0.379860
0.010000 61.180993 161.141599 -0.000000 0.108320 0.240786 -0.144909 -31.998891 101.373961 -0.000000 0.375407 0.417531 -0.379874
0.015000 61.094310 160.497035 -0.000000 0.108316 0.240830 -0.144921 -33.374155 101.089127 -0.000000 0.375375 0.417441 -0.379888
0.020000 61.107943 159.933547 -0.000000 0.108240 0.240873 -0.144847 -34.611050 100.859417 -0.000000 0.375325 0.417308 -0.379901
0.025000 61.101484 159.488373 -0.000000 0.108211 0.240872 -0.144843 -35.732236 100.673532 -0.000000 0.375273 0.417289 -0.379890
0.030000 61.155950 159.105481 -0.000000 0.108198 0.240927 -0.144815 -36.642985 100.568860 -0.000000 0.375225 0.417270 -0.379875
0.035000 61.229942 158.768504 -0.000000 0.108179 0.240959 -0.144804 -37.357805 100.549088 -0.000000 0.375181 0.417239 -0.379884
0.040000 61.318252 158.437494 -0.000000 0.108165 0.241021 -0.144809 -37.879970 100.623314 -0.000000 0.375176 0.417199 -0.379876
0.045000 61.359652 158.096762 -0.000000 0.108153 0.241064 -0.144800 -38.235776 100.792625 -0.000000 0.375187 0.417150 -0.379871
0.050000 61.337773 157.745403 -0.000000 0.108130 0.241074 -0.144805 -38.425731 101.060752 -0.000000 0.375199 0.417095 -0.379876
0.055000 61.304312 157.395560 -0.000000 0.108125 0.241119 -0.144801 -38.414234 101.437625 -0.000000 0.375219 0.417036 -0.379876
0.060000 61.293523 157.080286 -0.000000 0.108114 0.241164 -0.144791 -38.179433 101.925865 -0.000000 0.375229 0.416975 -0.379885
0.065000 61.333771 156.823610 -0.000000 0.108097 0.241190 -0.144807 -37.717643 102.519587 -0.000000 0.375231 0.416914 -0.379906
0.070000 61.435782 156.636236 -0.000000 0.108092 0.241195 -0.144793 -37.055794 103.198552 -0.000000 0.375242 0.416854 -0.379891
0.075000 61.618074 156.510242 -0.000000 0.108091 0.241242 -0.144795 -36.239154 103.928667 -0.000000 0.375248 0.416798 -0.379897
0.080000 61.858380 156.443837 -0.000000 0.108076 0.241246 -0.144788 -35.360872 104.650940 -0.000000 0.375324 0.416747 -0.379897
0.085000 62.135461 156.420785 -0.000000 0.108064 0.241266 -0.144790 -34.494586 105.320617 -0.000000 0.375394 0.416704 -0.379890
0.090000 62.406520 156.419649 -0.000000 0.108060 0.241274 -0.144792 -33.691596 105.915771 -0.000000 0.375459 0.416668 -0.379878
0.095000 62.664421 156.407786 -0.000000 0.108053 0.241297 -0.144788 -32.977752 106.426862 -0.000000 0.375535 0.416637 -0.379885
0.100000 62.886861 156.378915 -0.000000 0.108046 0.241315 -0.144791 -32.398571 106.842729 -0.000000 0.375602 0.416613 -0.379877
0.105000 63.082016 156.332104 -0.000000 0.108040 0.241342 -0.144774 -31.966092 107.176009 -0.000000 0.375620 0.416589 -0.379888
0.110000 63.261229 156.263632 -0.000000 0.108025 0.241364 -0.144777 -31.671424 107.451797 -0.000000 0.375632 0.416569 -0.379890
0.115000 63.401949 156.170619 -0.000000 0.108026 0.241362 -0.144789 -31.505571 107.694035 -0.000000 0.375652 0.416546 -0.379892
0.120000 63.512784 156.034432 -0.000000 0.108013 0.241400 -0.144784 -31.412658 107.936994 -0.000000 0.375662 0.416524 -0.379890
0.125000 63.577066 155.861229 -0.000000 0.108000 0.241431 -0.144791 -31.357442 108.192752 -0.000000 0.375692 0.416497 -0.379900
0.130000 63.598207 155.664873 -0.000000 0.107989 0.241452 -0.144790 -31.317619 108.447425 -0.000000 0.375716 0.416472 -0.379904
0.135000 63.605386 155.448748 -0.000000 0.107986 0.241475 -0.144785 -31.276118 108.676554 -0.000000 0.375749 0.416444 -0.379908
0.140000 63.608678 155.213495 -0.000000 0.107963 0.241497 -0.144782 -31.250313 108.848483 -0.000000 0.375768 0.416415 -0.379900
0.145000 63.597069 154.963010 -0.000000 0.107954 0.241519 -0.144794 -31.283936 108.934230 -0.000000 0.375789 0.416383 -0.379900
0.150000 63.528110 154.714810 -0.000000 0.107944 0.241566 -0.144797 -31.438870 108.914429 -0.000000 0.375817 0.416440 -0.379917
0.155000 63.437041 154.451349 -0.000000 0.107943 0.241605 -0.144801 -31.725042 108.791050 -0.000000 0.375835 0.416409 -0.379910
0.160000 63.261142 154.193557 -0.000000 0.107921 0.241627 -0.144804 -32.221622 108.546927 -0.000000 0.375865 0.416463 -0.379914
0.165000 63.046341 153.927066 -0.000000 0.107921 0.241675 -0.144799 -32.908689 108.198283 -0.000000 0.375885 0.416517 -0.379917
0.170000 62.800542 153.664566 -0.000000 0.107913 0.241698 -0.144813 -33.766228 107.763909 -0.000000 0.375916 0.416570 -0.379925
0.175000 62.577925 153.402932 -0.000000 0.107905 0.241721 -0.144809 -34.712836 107.288460 -0.000000 0.375940 0.416535 -0.379925
0.180000 62.326876 153.178590 -0.000000 0.107903 0.241756 -0.144822 -35.707613 106.821006 -0.000000 0.375957 0.416584 -0.379925
0.185000 62.163053 152.950044 -0.000000 0.107888 0.241798 -0.144817 -36.588478 106.460411 -0.000000 0.375972 0.416464 -0.379926
0.190000 61.971568 152.753837 -0.000000 0.107882 0.241821 -0.144814 -37.378190 106.239026 -0.000000 0.376004 0.416424 -0.379937
0.195000 61.765701 152.560092 -0.000000 0.107883 0.241848 -0.144817 -38.031503 106.201148 -0.000000 0.376018 0.416386 -0.379932
0.200000 61.536838 152.344790 -0.000000 0.107879 0.241877 -0.144821 -38.542977 106.362696 -0.000000 0.376037 0.416337 -0.379934
0.205000 61.267276 152.098557 -0.000000 0.107880 0.241925 -0.144844 -38.939040 106.710059 -0.000000 0.376056 0.416289 -0.379942
0.210000 60.924011 151.836140 -0.000000 0.107877 0.241962 -0.144834 -39.266768 107.196963 -0.000000 0.376064 0.416316 -0.379939
0.215000 60.609728 151.531612 -0.000000 0.107869 0.242007 -0.144833 -39.481617 107.776077 -0.000000 0.376092 0.416260 -0.379953
0.220000 60.333435 151.198373 -0.000000 0.107860 0.242040 -0.144848 -39.599549 108.360188 -0.000000 0.376121 0.416128 -0.379964
0.225000 60.057652 150.865156 -0.000000 0.107869 0.242097 -0.144839 -39.658422 108.872598 -0.000000 0.376145 0.416079 -0.379979
0.230000 59.835005 150.532432 -0.000000 0.107856 0.242147 -0.144847 -39.646812 109.286318 -0.000000 0.376167 0.416026 -0.379988
